<?xml version="1.0" encoding="utf-8"?>
<!-- Generated by Mocodo 4.3.2 -->
<svg width="801" height="602" viewBox="0 0 801 602" xmlns="http://www.w3.org/2000/svg">
<rect x="0" y="0" width="801" height="602" fill="#f7f7f7" stroke="none" stroke-width="0"/>

<!-- Association EMBARQUEMENT -->
<g>
	<line x1="403" y1="94" x2="230" y2="94" stroke="#e08214" stroke-width="2"/>
	<line x1="68" y1="94" x2="230" y2="94" stroke="#e08214" stroke-width="2"/>
	<g>
		<path d="M287 52 a14 14 90 0 1 14 14 V77 h-142 V66 a14 14 90 0 1 14 -14" fill="#fdb863" stroke="#fdb863" stroke-width="0"/>
		<path d="M301 77 v45 a14 14 90 0 1 -14 14 H173 a14 14 90 0 1 -14 -14 V77 H142" fill="#fee0b6" stroke="#fee0b6" stroke-width="0"/>
		<rect x="159" y="52" width="142" height="84" fill="none" rx="14" stroke="#e08214" stroke-width="2"/>
		<line x1="159" y1="77" x2="301" y2="77" stroke="#e08214" stroke-width="1"/>
		<text x="179" y="69.75" fill="#000000" font-family="Verdana" font-size="12">EMBARQUEMENT</text>
		<text x="166" y="94.8" fill="#000000" font-family="Verdana" font-size="12">date_integration</text>
		<text x="166" y="111.8" fill="#000000" font-family="Verdana" font-size="12">etat_fonctionnement</text>
		<text x="166" y="128.8" fill="#000000" font-family="Verdana" font-size="12">commentaire</text>
	</g>
	<text x="306" y="86" fill="#542788" font-family="Verdana" font-size="12">1,N</text>
	<text x="132" y="111" fill="#542788" font-family="Verdana" font-size="12">0,N</text>
</g>

<!-- Association EST_SUR -->
<g>
	<line x1="403" y1="94" x2="541" y2="94" stroke="#e08214" stroke-width="2"/>
	<line x1="721" y1="94" x2="541" y2="94" stroke="#e08214" stroke-width="2"/>
	<g>
		<path d="M563 69 a14 14 90 0 1 14 14 V94 h-72 V83 a14 14 90 0 1 14 -14" fill="#fdb863" stroke="#fdb863" stroke-width="0"/>
		<path d="M577 94 v11 a14 14 90 0 1 -14 14 H519 a14 14 90 0 1 -14 -14 V94 H72" fill="#fee0b6" stroke="#fee0b6" stroke-width="0"/>
		<rect x="505" y="69" width="72" height="50" fill="none" rx="14" stroke="#e08214" stroke-width="2"/>
		<line x1="505" y1="94" x2="577" y2="94" stroke="#e08214" stroke-width="1"/>
		<text x="513" y="86.75" fill="#000000" font-family="Verdana" font-size="12">EST_SUR</text>
	</g>
	<text x="478" y="86" fill="#542788" font-family="Verdana" font-size="12">1,1</text>
	<text x="638" y="111" fill="#542788" font-family="Verdana" font-size="12">0,N</text>
</g>

<!-- Association PARTICIPATION -->
<g>
	<line x1="403" y1="94" x2="230" y2="229" stroke="#e08214" stroke-width="2"/>
	<line x1="68" y1="347" x2="230" y2="229" stroke="#e08214" stroke-width="2"/>
	<g>
		<path d="M272 204 a14 14 90 0 1 14 14 V229 h-112 V218 a14 14 90 0 1 14 -14" fill="#fdb863" stroke="#fdb863" stroke-width="0"/>
		<path d="M286 229 v11 a14 14 90 0 1 -14 14 H188 a14 14 90 0 1 -14 -14 V229 H112" fill="#fee0b6" stroke="#fee0b6" stroke-width="0"/>
		<rect x="174" y="204" width="112" height="50" fill="none" rx="14" stroke="#e08214" stroke-width="2"/>
		<line x1="174" y1="229" x2="286" y2="229" stroke="#e08214" stroke-width="1"/>
		<text x="182" y="221.75" fill="#000000" font-family="Verdana" font-size="12">PARTICIPATION</text>
		<text x="181" y="246.8" fill="#000000" font-family="Verdana" font-size="12">role_satellite</text>
	</g>
	<text x="306" y="146.47" fill="#542788" font-family="Verdana" font-size="12">0,N</text>
	<text x="123" y="322.06" fill="#542788" font-family="Verdana" font-size="12">1,N</text>
</g>

<!-- Association CONCERNE -->
<g>
	<line x1="403" y1="94" x2="541" y2="229" stroke="#e08214" stroke-width="2"/>
	<line x1="403" y1="347" x2="541" y2="229" stroke="#e08214" stroke-width="2"/>
	<g>
		<path d="M569 204 a14 14 90 0 1 14 14 V229 h-84 V218 a14 14 90 0 1 14 -14" fill="#fdb863" stroke="#fdb863" stroke-width="0"/>
		<path d="M583 229 v11 a14 14 90 0 1 -14 14 H513 a14 14 90 0 1 -14 -14 V229 H84" fill="#fee0b6" stroke="#fee0b6" stroke-width="0"/>
		<rect x="499" y="204" width="84" height="50" fill="none" rx="14" stroke="#e08214" stroke-width="2"/>
		<line x1="499" y1="229" x2="583" y2="229" stroke="#e08214" stroke-width="1"/>
		<text x="507" y="221.75" fill="#000000" font-family="Verdana" font-size="12">CONCERNE</text>
	</g>
	<text x="478" y="161.44" fill="#542788" font-family="Verdana" font-size="12">0,N</text>
	<text x="478" y="297.85" fill="#542788" font-family="Verdana" font-size="12">1,N</text>
</g>

<!-- Association RECOIT -->
<g>
	<line x1="403" y1="347" x2="541" y2="347" stroke="#e08214" stroke-width="2"/>
	<line x1="721" y1="347" x2="541" y2="347" stroke="#e08214" stroke-width="2"/>
	<g>
		<path d="M558 322 a14 14 90 0 1 14 14 V347 h-62 V336 a14 14 90 0 1 14 -14" fill="#fdb863" stroke="#fdb863" stroke-width="0"/>
		<path d="M572 347 v11 a14 14 90 0 1 -14 14 H524 a14 14 90 0 1 -14 -14 V347 H62" fill="#fee0b6" stroke="#fee0b6" stroke-width="0"/>
		<rect x="510" y="322" width="62" height="50" fill="none" rx="14" stroke="#e08214" stroke-width="2"/>
		<line x1="510" y1="347" x2="572" y2="347" stroke="#e08214" stroke-width="1"/>
		<text x="518" y="339.75" fill="#000000" font-family="Verdana" font-size="12">RECOIT</text>
	</g>
	<text x="478" y="364" fill="#542788" font-family="Verdana" font-size="12">1,N</text>
	<text x="623" y="339" fill="#542788" font-family="Verdana" font-size="12">0,N</text>
</g>

<!-- Association AFFECTATION_STATION -->
<g>
	<line x1="721" y1="347" x2="541" y2="525" stroke="#e08214" stroke-width="2"/>
	<line x1="721" y1="525" x2="541" y2="525" stroke="#e08214" stroke-width="2"/>
	<g>
		<path d="M608 500 a14 14 90 0 1 14 14 V525 h-162 V514 a14 14 90 0 1 14 -14" fill="#fdb863" stroke="#fdb863" stroke-width="0"/>
		<path d="M622 525 v11 a14 14 90 0 1 -14 14 H474 a14 14 90 0 1 -14 -14 V525 H162" fill="#fee0b6" stroke="#fee0b6" stroke-width="0"/>
		<rect x="460" y="500" width="162" height="50" fill="none" rx="14" stroke="#e08214" stroke-width="2"/>
		<line x1="460" y1="525" x2="622" y2="525" stroke="#e08214" stroke-width="1"/>
		<text x="467" y="517.75" fill="#000000" font-family="Verdana" font-size="12">AFFECTATION_STATION</text>
		<text x="467" y="542.8" fill="#000000" font-family="Verdana" font-size="12">date_affectation</text>
	</g>
	<text x="624" y="416.23" fill="#542788" font-family="Verdana" font-size="12">1,1</text>
	<text x="627" y="542" fill="#542788" font-family="Verdana" font-size="12">1,N</text>
</g>

<!-- Entity INSTRUMENT -->
<g>
	<g>
		<rect x="9" y="26" width="118" height="25" fill="#b2abd2" stroke="none" stroke-width="0" opacity="1"/>
		<rect x="9" y="51" width="118" height="111" fill="#d8daeb" stroke="none" stroke-width="0" opacity="1"/>
		<rect x="9" y="26" width="118" height="136" fill="none" stroke="#8073ac" stroke-width="2" opacity="1"/>
		<line x1="9" y1="51" x2="127" y2="51" stroke="#8073ac" stroke-width="1"/>
	</g>
	<text x="27" y="43.75" fill="#000000" font-family="Verdana" font-size="12">INSTRUMENT</text>
	<text x="14" y="68.8" fill="#000000" font-family="Verdana" font-size="12">ref_instrument</text>
	<line x1="14" y1="71" x2="105" y2="71" stroke="#000000" stroke-width="1"/>
	<text x="14" y="85.8" fill="#000000" font-family="Verdana" font-size="12">type_instrument</text>
	<text x="14" y="102.8" fill="#000000" font-family="Verdana" font-size="12">modele</text>
	<text x="14" y="119.8" fill="#000000" font-family="Verdana" font-size="12">resolution_m</text>
	<text x="14" y="136.8" fill="#000000" font-family="Verdana" font-size="12">consommation_w</text>
	<text x="14" y="153.8" fill="#000000" font-family="Verdana" font-size="12">masse_kg</text>
</g>

<!-- Entity SATELLITE -->
<g>
	<g>
		<rect x="333" y="9" width="140" height="25" fill="#b2abd2" stroke="none" stroke-width="0" opacity="1"/>
		<rect x="333" y="34" width="140" height="145" fill="#d8daeb" stroke="none" stroke-width="0" opacity="1"/>
		<rect x="333" y="9" width="140" height="170" fill="none" stroke="#8073ac" stroke-width="2" opacity="1"/>
		<line x1="333" y1="34" x2="473" y2="34" stroke="#8073ac" stroke-width="1"/>
	</g>
	<text x="370" y="26.75" fill="#000000" font-family="Verdana" font-size="12">SATELLITE</text>
	<text x="338" y="51.8" fill="#000000" font-family="Verdana" font-size="12">id_satellite</text>
	<line x1="338" y1="54" x2="405" y2="54" stroke="#000000" stroke-width="1"/>
	<text x="338" y="68.8" fill="#000000" font-family="Verdana" font-size="12">nom_satellite</text>
	<text x="338" y="85.8" fill="#000000" font-family="Verdana" font-size="12">date_lancement</text>
	<text x="338" y="102.8" fill="#000000" font-family="Verdana" font-size="12">masse_kg</text>
	<text x="338" y="119.8" fill="#000000" font-family="Verdana" font-size="12">format_cubesat</text>
	<text x="338" y="136.8" fill="#000000" font-family="Verdana" font-size="12">statut</text>
	<text x="338" y="153.8" fill="#000000" font-family="Verdana" font-size="12">duree_vie_mois</text>
	<text x="338" y="170.8" fill="#000000" font-family="Verdana" font-size="12">capacite_batterie_wh</text>
</g>

<!-- Entity ORBITE -->
<g>
	<g>
		<rect x="665" y="18" width="112" height="25" fill="#b2abd2" stroke="none" stroke-width="0" opacity="1"/>
		<rect x="665" y="43" width="112" height="127" fill="#d8daeb" stroke="none" stroke-width="0" opacity="1"/>
		<rect x="665" y="18" width="112" height="152" fill="none" stroke="#8073ac" stroke-width="2" opacity="1"/>
		<line x1="665" y1="43" x2="777" y2="43" stroke="#8073ac" stroke-width="1"/>
	</g>
	<text x="698" y="35.75" fill="#000000" font-family="Verdana" font-size="12">ORBITE</text>
	<text x="670" y="60.8" fill="#000000" font-family="Verdana" font-size="12">id_orbite</text>
	<line x1="670" y1="63" x2="724" y2="63" stroke="#000000" stroke-width="1"/>
	<text x="670" y="77.8" fill="#000000" font-family="Verdana" font-size="12">type_orbite</text>
	<text x="670" y="94.8" fill="#000000" font-family="Verdana" font-size="12">altitude_km</text>
	<text x="670" y="111.8" fill="#000000" font-family="Verdana" font-size="12">inclinaison_deg</text>
	<text x="670" y="128.8" fill="#000000" font-family="Verdana" font-size="12">periode_min</text>
	<text x="670" y="145.8" fill="#000000" font-family="Verdana" font-size="12">excentricite</text>
	<text x="670" y="162.8" fill="#000000" font-family="Verdana" font-size="12">zone_couverture</text>
</g>

<!-- Entity MISSION -->
<g>
	<g>
		<rect x="18" y="271" width="100" height="25" fill="#b2abd2" stroke="none" stroke-width="0" opacity="1"/>
		<rect x="18" y="296" width="100" height="127" fill="#d8daeb" stroke="none" stroke-width="0" opacity="1"/>
		<rect x="18" y="271" width="100" height="152" fill="none" stroke="#8073ac" stroke-width="2" opacity="1"/>
		<line x1="18" y1="296" x2="118" y2="296" stroke="#8073ac" stroke-width="1"/>
	</g>
	<text x="40" y="288.75" fill="#000000" font-family="Verdana" font-size="12">MISSION</text>
	<text x="23" y="313.8" fill="#000000" font-family="Verdana" font-size="12">id_mission</text>
	<line x1="23" y1="316" x2="88" y2="316" stroke="#000000" stroke-width="1"/>
	<text x="23" y="330.8" fill="#000000" font-family="Verdana" font-size="12">nom_mission</text>
	<text x="23" y="347.8" fill="#000000" font-family="Verdana" font-size="12">objectif</text>
	<text x="23" y="364.8" fill="#000000" font-family="Verdana" font-size="12">zone_cible</text>
	<text x="23" y="381.8" fill="#000000" font-family="Verdana" font-size="12">date_debut</text>
	<text x="23" y="398.8" fill="#000000" font-family="Verdana" font-size="12">date_fin</text>
	<text x="23" y="415.8" fill="#000000" font-family="Verdana" font-size="12">statut_mission</text>
</g>

<!-- Entity FENETRE_COM -->
<g>
	<g>
		<rect x="333" y="279" width="140" height="25" fill="#b2abd2" stroke="none" stroke-width="0" opacity="1"/>
		<rect x="333" y="304" width="140" height="111" fill="#d8daeb" stroke="none" stroke-width="0" opacity="1"/>
		<rect x="333" y="279" width="140" height="136" fill="none" stroke="#8073ac" stroke-width="2" opacity="1"/>
		<line x1="333" y1="304" x2="473" y2="304" stroke="#8073ac" stroke-width="1"/>
	</g>
	<text x="358" y="296.75" fill="#000000" font-family="Verdana" font-size="12">FENETRE_COM</text>
	<text x="338" y="321.8" fill="#000000" font-family="Verdana" font-size="12">id_fenetre</text>
	<line x1="338" y1="324" x2="401" y2="324" stroke="#000000" stroke-width="1"/>
	<text x="338" y="338.8" fill="#000000" font-family="Verdana" font-size="12">datetime_debut</text>
	<text x="338" y="355.8" fill="#000000" font-family="Verdana" font-size="12">duree_secondes</text>
	<text x="338" y="372.8" fill="#000000" font-family="Verdana" font-size="12">elevation_max_deg</text>
	<text x="338" y="389.8" fill="#000000" font-family="Verdana" font-size="12">volume_donnees_mo</text>
	<text x="338" y="406.8" fill="#000000" font-family="Verdana" font-size="12">statut</text>
</g>

<!-- Entity STATION_SOL -->
<g>
	<g>
		<rect x="650" y="262" width="142" height="25" fill="#b2abd2" stroke="none" stroke-width="0" opacity="1"/>
		<rect x="650" y="287" width="142" height="145" fill="#d8daeb" stroke="none" stroke-width="0" opacity="1"/>
		<rect x="650" y="262" width="142" height="170" fill="none" stroke="#8073ac" stroke-width="2" opacity="1"/>
		<line x1="650" y1="287" x2="792" y2="287" stroke="#8073ac" stroke-width="1"/>
	</g>
	<text x="677" y="279.75" fill="#000000" font-family="Verdana" font-size="12">STATION_SOL</text>
	<text x="655" y="304.8" fill="#000000" font-family="Verdana" font-size="12">code_station</text>
	<line x1="655" y1="307" x2="733" y2="307" stroke="#000000" stroke-width="1"/>
	<text x="655" y="321.8" fill="#000000" font-family="Verdana" font-size="12">nom_station</text>
	<text x="655" y="338.8" fill="#000000" font-family="Verdana" font-size="12">latitude</text>
	<text x="655" y="355.8" fill="#000000" font-family="Verdana" font-size="12">longitude</text>
	<text x="655" y="372.8" fill="#000000" font-family="Verdana" font-size="12">diametre_antenne_m</text>
	<text x="655" y="389.8" fill="#000000" font-family="Verdana" font-size="12">bande_frequence</text>
	<text x="655" y="406.8" fill="#000000" font-family="Verdana" font-size="12">debit_max_mbps</text>
	<text x="655" y="423.8" fill="#000000" font-family="Verdana" font-size="12">statut</text>
</g>

<!-- Entity CENTRE_CONTROLE -->
<g>
	<g>
		<rect x="654" y="457" width="134" height="25" fill="#b2abd2" stroke="none" stroke-width="0" opacity="1"/>
		<rect x="654" y="482" width="134" height="111" fill="#d8daeb" stroke="none" stroke-width="0" opacity="1"/>
		<rect x="654" y="457" width="134" height="136" fill="none" stroke="#8073ac" stroke-width="2" opacity="1"/>
		<line x1="654" y1="482" x2="788" y2="482" stroke="#8073ac" stroke-width="1"/>
	</g>
	<text x="660" y="474.75" fill="#000000" font-family="Verdana" font-size="12">CENTRE_CONTROLE</text>
	<text x="659" y="499.8" fill="#000000" font-family="Verdana" font-size="12">id_centre</text>
	<line x1="659" y1="502" x2="716" y2="502" stroke="#000000" stroke-width="1"/>
	<text x="659" y="516.8" fill="#000000" font-family="Verdana" font-size="12">nom_centre</text>
	<text x="659" y="533.8" fill="#000000" font-family="Verdana" font-size="12">ville</text>
	<text x="659" y="550.8" fill="#000000" font-family="Verdana" font-size="12">region</text>
	<text x="659" y="567.8" fill="#000000" font-family="Verdana" font-size="12">fuseau_horaire</text>
	<text x="659" y="584.8" fill="#000000" font-family="Verdana" font-size="12">statut</text>
</g>
</svg>