<?xml version="1.0" encoding="utf-8"?>
<!-- Generated by Mocodo 4.3.2 -->
<svg width="1141" height="374" viewBox="0 0 1141 374" xmlns="http://www.w3.org/2000/svg">
<rect x="0" y="0" width="1141" height="374" fill="#f7f7f7" stroke="none" stroke-width="0"/>

<!-- Association EST_SUR -->
<g>
	<line x1="65" y1="94" x2="189" y2="94" stroke="#5aae61" stroke-width="2"/>
	<line x1="351" y1="94" x2="189" y2="94" stroke="#5aae61" stroke-width="2"/>
	<g>
		<path d="M211 69 a14 14 90 0 1 14 14 V94 h-72 V83 a14 14 90 0 1 14 -14" fill="#a6dba0" stroke="#a6dba0" stroke-width="0"/>
		<path d="M225 94 v11 a14 14 90 0 1 -14 14 H167 a14 14 90 0 1 -14 -14 V94 H72" fill="#d9f0d3" stroke="#d9f0d3" stroke-width="0"/>
		<rect x="153" y="69" width="72" height="50" fill="none" rx="14" stroke="#5aae61" stroke-width="2"/>
		<line x1="153" y1="94" x2="225" y2="94" stroke="#5aae61" stroke-width="1"/>
		<text x="161" y="86.75" fill="#000000" font-family="Verdana" font-size="12">EST_SUR</text>
	</g>
	<text x="126" y="111" fill="#762a83" font-family="Verdana" font-size="12">0,N</text>
	<text x="255" y="111" fill="#762a83" font-family="Verdana" font-size="12">1,1</text>
</g>

<!-- Association PARTICIPATION -->
<g>
	<line x1="351" y1="94" x2="526" y2="94" stroke="#5aae61" stroke-width="2"/>
	<line x1="701" y1="94" x2="526" y2="94" stroke="#5aae61" stroke-width="2"/>
	<g>
		<path d="M568 69 a14 14 90 0 1 14 14 V94 h-112 V83 a14 14 90 0 1 14 -14" fill="#a6dba0" stroke="#a6dba0" stroke-width="0"/>
		<path d="M582 94 v11 a14 14 90 0 1 -14 14 H484 a14 14 90 0 1 -14 -14 V94 H112" fill="#d9f0d3" stroke="#d9f0d3" stroke-width="0"/>
		<rect x="470" y="69" width="112" height="50" fill="none" rx="14" stroke="#5aae61" stroke-width="2"/>
		<line x1="470" y1="94" x2="582" y2="94" stroke="#5aae61" stroke-width="1"/>
		<text x="478" y="86.75" fill="#000000" font-family="Verdana" font-size="12">PARTICIPATION</text>
		<text x="477" y="111.8" fill="#000000" font-family="Verdana" font-size="12">role_satellite</text>
	</g>
	<text x="426" y="86" fill="#762a83" font-family="Verdana" font-size="12">0,N</text>
	<text x="624" y="111" fill="#762a83" font-family="Verdana" font-size="12">1,N</text>
</g>

<!-- Association EMBARQUEMENT -->
<g>
	<line x1="351" y1="94" x2="351" y2="280" stroke="#5aae61" stroke-width="2"/>
	<line x1="189" y1="280" x2="351" y2="280" stroke="#5aae61" stroke-width="2"/>
	<g>
		<path d="M408 246 a14 14 90 0 1 14 14 V271 h-142 V260 a14 14 90 0 1 14 -14" fill="#a6dba0" stroke="#a6dba0" stroke-width="0"/>
		<path d="M422 271 v29 a14 14 90 0 1 -14 14 H294 a14 14 90 0 1 -14 -14 V271 H142" fill="#d9f0d3" stroke="#d9f0d3" stroke-width="0"/>
		<rect x="280" y="246" width="142" height="68" fill="none" rx="14" stroke="#5aae61" stroke-width="2"/>
		<line x1="280" y1="271" x2="422" y2="271" stroke="#5aae61" stroke-width="1"/>
		<text x="300" y="263.75" fill="#000000" font-family="Verdana" font-size="12">EMBARQUEMENT</text>
		<text x="287" y="288.8" fill="#000000" font-family="Verdana" font-size="12">date_integration</text>
		<text x="287" y="305.8" fill="#000000" font-family="Verdana" font-size="12">etat_fonctionnement</text>
	</g>
	<text x="324" y="196" fill="#762a83" font-family="Verdana" font-size="12">1,N</text>
	<text x="253" y="297" fill="#762a83" font-family="Verdana" font-size="12">0,N</text>
</g>

<!-- Association FENETRE_COM -->
<g>
	<line x1="351" y1="94" x2="526" y2="280" stroke="#5aae61" stroke-width="2"/>
	<line x1="701" y1="280" x2="526" y2="280" stroke="#5aae61" stroke-width="2"/>
	<g>
		<path d="M584 221 a14 14 90 0 1 14 14 V246 h-144 V235 a14 14 90 0 1 14 -14" fill="#a6dba0" stroke="#a6dba0" stroke-width="0"/>
		<path d="M598 246 v79 a14 14 90 0 1 -14 14 H468 a14 14 90 0 1 -14 -14 V246 H144" fill="#d9f0d3" stroke="#d9f0d3" stroke-width="0"/>
		<rect x="454" y="221" width="144" height="118" fill="none" rx="14" stroke="#5aae61" stroke-width="2"/>
		<line x1="454" y1="246" x2="598" y2="246" stroke="#5aae61" stroke-width="1"/>
		<text x="481" y="238.75" fill="#000000" font-family="Verdana" font-size="12">FENETRE_COM</text>
		<text x="461" y="263.8" fill="#000000" font-family="Verdana" font-size="12">datetime_debut</text>
		<text x="461" y="280.8" fill="#000000" font-family="Verdana" font-size="12">duree_secondes</text>
		<text x="461" y="297.8" fill="#000000" font-family="Verdana" font-size="12">elevation_max_deg</text>
		<text x="461" y="314.8" fill="#000000" font-family="Verdana" font-size="12">volume_donnees_mo</text>
		<text x="461" y="331.8" fill="#000000" font-family="Verdana" font-size="12">statut</text>
	</g>
	<text x="426" y="167.17" fill="#762a83" font-family="Verdana" font-size="12">0,N</text>
	<text x="603" y="297" fill="#762a83" font-family="Verdana" font-size="12">0,N</text>
</g>

<!-- Association AFFECTATION_STATION -->
<g>
	<line x1="701" y1="280" x2="885" y2="280" stroke="#5aae61" stroke-width="2"/>
	<line x1="1065" y1="280" x2="885" y2="280" stroke="#5aae61" stroke-width="2"/>
	<g>
		<path d="M952 255 a14 14 90 0 1 14 14 V280 h-162 V269 a14 14 90 0 1 14 -14" fill="#a6dba0" stroke="#a6dba0" stroke-width="0"/>
		<path d="M966 280 v11 a14 14 90 0 1 -14 14 H818 a14 14 90 0 1 -14 -14 V280 H162" fill="#d9f0d3" stroke="#d9f0d3" stroke-width="0"/>
		<rect x="804" y="255" width="162" height="50" fill="none" rx="14" stroke="#5aae61" stroke-width="2"/>
		<line x1="804" y1="280" x2="966" y2="280" stroke="#5aae61" stroke-width="1"/>
		<text x="811" y="272.75" fill="#000000" font-family="Verdana" font-size="12">AFFECTATION_STATION</text>
		<text x="811" y="297.8" fill="#000000" font-family="Verdana" font-size="12">date_affectation</text>
	</g>
	<text x="777" y="297" fill="#762a83" font-family="Verdana" font-size="12">1,1</text>
	<text x="971" y="297" fill="#762a83" font-family="Verdana" font-size="12">1,N</text>
</g>

<!-- Entity ORBITE -->
<g>
	<g>
		<rect x="9" y="18" width="112" height="25" fill="#c2a5cf" stroke="none" stroke-width="0" opacity="1"/>
		<rect x="9" y="43" width="112" height="127" fill="#e7d4e8" stroke="none" stroke-width="0" opacity="1"/>
		<rect x="9" y="18" width="112" height="152" fill="none" stroke="#9970ab" stroke-width="2" opacity="1"/>
		<line x1="9" y1="43" x2="121" y2="43" stroke="#9970ab" stroke-width="1"/>
	</g>
	<text x="42" y="35.75" fill="#000000" font-family="Verdana" font-size="12">ORBITE</text>
	<text x="14" y="60.8" fill="#000000" font-family="Verdana" font-size="12">id_orbite</text>
	<line x1="14" y1="63" x2="68" y2="63" stroke="#000000" stroke-width="1"/>
	<text x="14" y="77.8" fill="#000000" font-family="Verdana" font-size="12">type_orbite</text>
	<text x="14" y="94.8" fill="#000000" font-family="Verdana" font-size="12">altitude_km</text>
	<text x="14" y="111.8" fill="#000000" font-family="Verdana" font-size="12">inclinaison_deg</text>
	<text x="14" y="128.8" fill="#000000" font-family="Verdana" font-size="12">periode_min</text>
	<text x="14" y="145.8" fill="#000000" font-family="Verdana" font-size="12">excentricite</text>
	<text x="14" y="162.8" fill="#000000" font-family="Verdana" font-size="12">zone_couverture</text>
</g>

<!-- Entity SATELLITE -->
<g>
	<g>
		<rect x="281" y="9" width="140" height="25" fill="#c2a5cf" stroke="none" stroke-width="0" opacity="1"/>
		<rect x="281" y="34" width="140" height="145" fill="#e7d4e8" stroke="none" stroke-width="0" opacity="1"/>
		<rect x="281" y="9" width="140" height="170" fill="none" stroke="#9970ab" stroke-width="2" opacity="1"/>
		<line x1="281" y1="34" x2="421" y2="34" stroke="#9970ab" stroke-width="1"/>
	</g>
	<text x="318" y="26.75" fill="#000000" font-family="Verdana" font-size="12">SATELLITE</text>
	<text x="286" y="51.8" fill="#000000" font-family="Verdana" font-size="12">id_satellite</text>
	<line x1="286" y1="54" x2="353" y2="54" stroke="#000000" stroke-width="1"/>
	<text x="286" y="68.8" fill="#000000" font-family="Verdana" font-size="12">nom_satellite</text>
	<text x="286" y="85.8" fill="#000000" font-family="Verdana" font-size="12">date_lancement</text>
	<text x="286" y="102.8" fill="#000000" font-family="Verdana" font-size="12">masse_kg</text>
	<text x="286" y="119.8" fill="#000000" font-family="Verdana" font-size="12">format_cubesat</text>
	<text x="286" y="136.8" fill="#000000" font-family="Verdana" font-size="12">statut_actuel</text>
	<text x="286" y="153.8" fill="#000000" font-family="Verdana" font-size="12">duree_vie_mois</text>
	<text x="286" y="170.8" fill="#000000" font-family="Verdana" font-size="12">capacite_batterie_wh</text>
</g>

<!-- Entity MISSION -->
<g>
	<g>
		<rect x="651" y="18" width="100" height="25" fill="#c2a5cf" stroke="none" stroke-width="0" opacity="1"/>
		<rect x="651" y="43" width="100" height="127" fill="#e7d4e8" stroke="none" stroke-width="0" opacity="1"/>
		<rect x="651" y="18" width="100" height="152" fill="none" stroke="#9970ab" stroke-width="2" opacity="1"/>
		<line x1="651" y1="43" x2="751" y2="43" stroke="#9970ab" stroke-width="1"/>
	</g>
	<text x="673" y="35.75" fill="#000000" font-family="Verdana" font-size="12">MISSION</text>
	<text x="656" y="60.8" fill="#000000" font-family="Verdana" font-size="12">id_mission</text>
	<line x1="656" y1="63" x2="721" y2="63" stroke="#000000" stroke-width="1"/>
	<text x="656" y="77.8" fill="#000000" font-family="Verdana" font-size="12">nom_mission</text>
	<text x="656" y="94.8" fill="#000000" font-family="Verdana" font-size="12">objectif</text>
	<text x="656" y="111.8" fill="#000000" font-family="Verdana" font-size="12">zone_cible</text>
	<text x="656" y="128.8" fill="#000000" font-family="Verdana" font-size="12">date_debut</text>
	<text x="656" y="145.8" fill="#000000" font-family="Verdana" font-size="12">date_fin</text>
	<text x="656" y="162.8" fill="#000000" font-family="Verdana" font-size="12">statut_mission</text>
</g>

<!-- Entity INSTRUMENT -->
<g>
	<g>
		<rect x="130" y="212" width="118" height="25" fill="#c2a5cf" stroke="none" stroke-width="0" opacity="1"/>
		<rect x="130" y="237" width="118" height="111" fill="#e7d4e8" stroke="none" stroke-width="0" opacity="1"/>
		<rect x="130" y="212" width="118" height="136" fill="none" stroke="#9970ab" stroke-width="2" opacity="1"/>
		<line x1="130" y1="237" x2="248" y2="237" stroke="#9970ab" stroke-width="1"/>
	</g>
	<text x="148" y="229.75" fill="#000000" font-family="Verdana" font-size="12">INSTRUMENT</text>
	<text x="135" y="254.8" fill="#000000" font-family="Verdana" font-size="12">id_instrument</text>
	<line x1="135" y1="257" x2="220" y2="257" stroke="#000000" stroke-width="1"/>
	<text x="135" y="271.8" fill="#000000" font-family="Verdana" font-size="12">type_instrument</text>
	<text x="135" y="288.8" fill="#000000" font-family="Verdana" font-size="12">modele</text>
	<text x="135" y="305.8" fill="#000000" font-family="Verdana" font-size="12">resolution_m</text>
	<text x="135" y="322.8" fill="#000000" font-family="Verdana" font-size="12">consommation_w</text>
	<text x="135" y="339.8" fill="#000000" font-family="Verdana" font-size="12">masse_kg</text>
</g>

<!-- Entity STATION_SOL -->
<g>
	<g>
		<rect x="630" y="195" width="142" height="25" fill="#c2a5cf" stroke="none" stroke-width="0" opacity="1"/>
		<rect x="630" y="220" width="142" height="145" fill="#e7d4e8" stroke="none" stroke-width="0" opacity="1"/>
		<rect x="630" y="195" width="142" height="170" fill="none" stroke="#9970ab" stroke-width="2" opacity="1"/>
		<line x1="630" y1="220" x2="772" y2="220" stroke="#9970ab" stroke-width="1"/>
	</g>
	<text x="657" y="212.75" fill="#000000" font-family="Verdana" font-size="12">STATION_SOL</text>
	<text x="635" y="237.8" fill="#000000" font-family="Verdana" font-size="12">code_station</text>
	<line x1="635" y1="240" x2="713" y2="240" stroke="#000000" stroke-width="1"/>
	<text x="635" y="254.8" fill="#000000" font-family="Verdana" font-size="12">nom_station</text>
	<text x="635" y="271.8" fill="#000000" font-family="Verdana" font-size="12">latitude</text>
	<text x="635" y="288.8" fill="#000000" font-family="Verdana" font-size="12">longitude</text>
	<text x="635" y="305.8" fill="#000000" font-family="Verdana" font-size="12">diametre_antenne_m</text>
	<text x="635" y="322.8" fill="#000000" font-family="Verdana" font-size="12">bande_frequence</text>
	<text x="635" y="339.8" fill="#000000" font-family="Verdana" font-size="12">debit_max_mbps</text>
	<text x="635" y="356.8" fill="#000000" font-family="Verdana" font-size="12">statut</text>
</g>

<!-- Entity CENTRE_CONTROLE -->
<g>
	<g>
		<rect x="998" y="212" width="134" height="25" fill="#c2a5cf" stroke="none" stroke-width="0" opacity="1"/>
		<rect x="998" y="237" width="134" height="111" fill="#e7d4e8" stroke="none" stroke-width="0" opacity="1"/>
		<rect x="998" y="212" width="134" height="136" fill="none" stroke="#9970ab" stroke-width="2" opacity="1"/>
		<line x1="998" y1="237" x2="1132" y2="237" stroke="#9970ab" stroke-width="1"/>
	</g>
	<text x="1004" y="229.75" fill="#000000" font-family="Verdana" font-size="12">CENTRE_CONTROLE</text>
	<text x="1003" y="254.8" fill="#000000" font-family="Verdana" font-size="12">id_centre</text>
	<line x1="1003" y1="257" x2="1060" y2="257" stroke="#000000" stroke-width="1"/>
	<text x="1003" y="271.8" fill="#000000" font-family="Verdana" font-size="12">nom_centre</text>
	<text x="1003" y="288.8" fill="#000000" font-family="Verdana" font-size="12">ville</text>
	<text x="1003" y="305.8" fill="#000000" font-family="Verdana" font-size="12">region</text>
	<text x="1003" y="322.8" fill="#000000" font-family="Verdana" font-size="12">fuseau_horaire</text>
	<text x="1003" y="339.8" fill="#000000" font-family="Verdana" font-size="12">statut</text>
</g>
</svg>